<svg xmlns="http://www.w3.org/2000/svg" viewBox="0 0 1200 600" role="img" aria-labelledby="t">
<title id="t">Automated data reconciliation — two source systems matched and validated into one trusted result</title>
<defs>
<linearGradient id="bg" x1="0" y1="0" x2="1" y2="1"><stop offset="0" stop-color="#0b1120"/><stop offset="1" stop-color="#1b2540"/></linearGradient>
<linearGradient id="brand" x1="0" y1="0" x2="1" y2="0"><stop offset="0" stop-color="#2563eb"/><stop offset="1" stop-color="#7c3aed"/></linearGradient>
<radialGradient id="gb"><stop offset="0" stop-color="#2563eb" stop-opacity="0.25"/><stop offset="1" stop-color="#2563eb" stop-opacity="0"/></radialGradient>
<radialGradient id="gp"><stop offset="0" stop-color="#7c3aed" stop-opacity="0.22"/><stop offset="1" stop-color="#7c3aed" stop-opacity="0"/></radialGradient>
<pattern id="grid" width="44" height="44" patternUnits="userSpaceOnUse"><path d="M44 0H0V44" fill="none" stroke="#94a3b8" stroke-opacity="0.06"/></pattern>
<marker id="arr" viewBox="0 0 10 10" refX="8" refY="5" markerWidth="7" markerHeight="7" orient="auto"><path d="M0 0L10 5L0 10z" fill="#64748b"/></marker>
<marker id="arrB" viewBox="0 0 10 10" refX="8" refY="5" markerWidth="8" markerHeight="8" orient="auto"><path d="M0 0L10 5L0 10z" fill="#7c3aed"/></marker>
</defs>
<rect width="1200" height="600" fill="url(#bg)"/>
<rect width="1200" height="600" fill="url(#grid)"/>
<ellipse cx="260" cy="300" rx="400" ry="300" fill="url(#gb)"/>
<ellipse cx="940" cy="300" rx="400" ry="300" fill="url(#gp)"/>
<g font-family="Segoe UI, system-ui, sans-serif">
<!-- source A -->
<rect x="110" y="110" width="270" height="170" rx="16" fill="#111a30" stroke="#2b3a5c"/>
<text x="134" y="144" font-size="12" letter-spacing="3" fill="#94a3b8">SOURCE A</text>
<path d="M330 128 a14 5 0 0 0 28 0 v18 a14 5 0 0 1 -28 0 z" fill="none" stroke="#60a5fa" stroke-width="2"/>
<ellipse cx="344" cy="128" rx="14" ry="5" fill="none" stroke="#60a5fa" stroke-width="2"/>
<g>
<circle cx="142" cy="172" r="5" fill="#60a5fa"/><rect x="158" y="167" width="110" height="9" rx="4.5" fill="#2b3a5c"/><rect x="296" y="167" width="52" height="9" rx="4.5" fill="#3b4d75"/>
<circle cx="142" cy="202" r="5" fill="#60a5fa"/><rect x="158" y="197" width="94" height="9" rx="4.5" fill="#2b3a5c"/><rect x="296" y="197" width="52" height="9" rx="4.5" fill="#3b4d75"/>
<circle cx="142" cy="232" r="5" fill="#60a5fa"/><rect x="158" y="227" width="118" height="9" rx="4.5" fill="#2b3a5c"/><rect x="296" y="227" width="52" height="9" rx="4.5" fill="#3b4d75"/>
</g>
<!-- source B -->
<rect x="110" y="320" width="270" height="170" rx="16" fill="#111a30" stroke="#2b3a5c"/>
<text x="134" y="354" font-size="12" letter-spacing="3" fill="#94a3b8">SOURCE B</text>
<path d="M330 338 a14 5 0 0 0 28 0 v18 a14 5 0 0 1 -28 0 z" fill="none" stroke="#a78bfa" stroke-width="2"/>
<ellipse cx="344" cy="338" rx="14" ry="5" fill="none" stroke="#a78bfa" stroke-width="2"/>
<g>
<circle cx="142" cy="382" r="5" fill="#a78bfa"/><rect x="158" y="377" width="110" height="9" rx="4.5" fill="#2b3a5c"/><rect x="296" y="377" width="52" height="9" rx="4.5" fill="#3b4d75"/>
<circle cx="142" cy="412" r="5" fill="#fbbf24"/><rect x="158" y="407" width="94" height="9" rx="4.5" fill="#4a3a1e"/><rect x="296" y="407" width="52" height="9" rx="4.5" fill="#6b5321"/>
<circle cx="142" cy="442" r="5" fill="#a78bfa"/><rect x="158" y="437" width="118" height="9" rx="4.5" fill="#2b3a5c"/><rect x="296" y="437" width="52" height="9" rx="4.5" fill="#3b4d75"/>
</g>
<!-- arrows in -->
<path d="M388 195 C450 200 470 240 508 262" fill="none" stroke="#3b4d75" stroke-width="2.5" marker-end="url(#arr)"/>
<path d="M388 405 C450 400 470 360 508 338" fill="none" stroke="#3b4d75" stroke-width="2.5" marker-end="url(#arr)"/>
<!-- match engine -->
<circle cx="575" cy="300" r="80" fill="#111a30" stroke="url(#brand)" stroke-width="3.5"/>
<circle cx="575" cy="300" r="34" fill="none" stroke="#a78bfa" stroke-width="7" stroke-dasharray="11 9"/>
<circle cx="575" cy="300" r="12" fill="url(#brand)"/>
<text x="575" y="416" text-anchor="middle" font-size="12" letter-spacing="3" fill="#94a3b8">MATCH ENGINE</text>
<!-- arrow out -->
<line x1="659" y1="300" x2="745" y2="300" stroke="#7c3aed" stroke-width="3.5" marker-end="url(#arrB)"/>
<!-- result card -->
<rect x="760" y="140" width="330" height="320" rx="18" fill="#111a30" stroke="#2b3a5c"/>
<text x="786" y="178" font-size="12" letter-spacing="3" fill="#94a3b8">RECONCILED</text>
<line x1="760" y1="196" x2="1090" y2="196" stroke="#2b3a5c"/>
<g>
<rect x="786" y="214" width="180" height="10" rx="5" fill="#2b3a5c"/>
<circle cx="1056" cy="219" r="11" fill="#34d399"/><path d="M1051 219 l4 5 l8 -9" fill="none" stroke="#0b1120" stroke-width="2.4" stroke-linecap="round" stroke-linejoin="round"/>
<rect x="786" y="252" width="150" height="10" rx="5" fill="#2b3a5c"/>
<circle cx="1056" cy="257" r="11" fill="#34d399"/><path d="M1051 257 l4 5 l8 -9" fill="none" stroke="#0b1120" stroke-width="2.4" stroke-linecap="round" stroke-linejoin="round"/>
<rect x="778" y="282" width="294" height="34" rx="8" fill="#f59e0b" fill-opacity="0.09"/>
<rect x="786" y="294" width="166" height="10" rx="5" fill="#4a3a1e"/>
<path d="M1056 288 l11 19 h-22 z" fill="#f59e0b"/><rect x="1054" y="295" width="4" height="7" rx="2" fill="#1a1405"/><circle cx="1056" cy="305" r="2" fill="#1a1405"/>
<rect x="786" y="332" width="172" height="10" rx="5" fill="#2b3a5c"/>
<circle cx="1056" cy="337" r="11" fill="#34d399"/><path d="M1051 337 l4 5 l8 -9" fill="none" stroke="#0b1120" stroke-width="2.4" stroke-linecap="round" stroke-linejoin="round"/>
<rect x="786" y="370" width="140" height="10" rx="5" fill="#2b3a5c"/>
<circle cx="1056" cy="375" r="11" fill="#34d399"/><path d="M1051 375 l4 5 l8 -9" fill="none" stroke="#0b1120" stroke-width="2.4" stroke-linecap="round" stroke-linejoin="round"/>
</g>
<rect x="786" y="404" width="150" height="34" rx="17" fill="#0d2b22" stroke="#34d399"/>
<text x="861" y="426" text-anchor="middle" font-size="13" font-weight="700" fill="#34d399">98.6% MATCHED</text>
<text x="600" y="548" text-anchor="middle" font-size="13" letter-spacing="4" fill="#64748b">EVERY RECORD ACCOUNTED FOR &#183; NO MANUAL CHECKS</text>
</g>
</svg>
