<svg xmlns="http://www.w3.org/2000/svg" viewBox="0 0 1200 600" role="img" aria-labelledby="t">
<title id="t">Responsible AI framework — governance, fairness, and transparency protecting AI systems</title>
<defs>
<linearGradient id="bg" x1="0" y1="0" x2="1" y2="1"><stop offset="0" stop-color="#0b1120"/><stop offset="1" stop-color="#1b2540"/></linearGradient>
<linearGradient id="brand" x1="0" y1="0" x2="1" y2="0"><stop offset="0" stop-color="#2563eb"/><stop offset="1" stop-color="#7c3aed"/></linearGradient>
<radialGradient id="gb"><stop offset="0" stop-color="#2563eb" stop-opacity="0.25"/><stop offset="1" stop-color="#2563eb" stop-opacity="0"/></radialGradient>
<radialGradient id="gp"><stop offset="0" stop-color="#7c3aed" stop-opacity="0.22"/><stop offset="1" stop-color="#7c3aed" stop-opacity="0"/></radialGradient>
<pattern id="grid" width="44" height="44" patternUnits="userSpaceOnUse"><path d="M44 0H0V44" fill="none" stroke="#94a3b8" stroke-opacity="0.06"/></pattern>
</defs>
<rect width="1200" height="600" fill="url(#bg)"/>
<rect width="1200" height="600" fill="url(#grid)"/>
<ellipse cx="380" cy="300" rx="440" ry="320" fill="url(#gb)"/>
<ellipse cx="960" cy="280" rx="400" ry="300" fill="url(#gp)"/>
<!-- connector lines -->
<g stroke="#2b3a5c" stroke-width="2">
<line x1="596" y1="200" x2="756" y2="182"/>
<line x1="612" y1="300" x2="756" y2="292"/>
<line x1="576" y1="404" x2="756" y2="402"/>
</g>
<g font-family="Segoe UI, system-ui, sans-serif">
<!-- shield -->
<path d="M450 108 L602 166 V300 C602 412 534 470 450 508 C366 470 298 412 298 300 V166 Z" fill="#111a30" stroke="url(#brand)" stroke-width="4"/>
<!-- neural net inside -->
<g stroke="#33415e" stroke-width="1.5">
<line x1="395" y1="230" x2="505" y2="230"/><line x1="395" y1="230" x2="450" y2="300"/><line x1="505" y1="230" x2="450" y2="300"/>
<line x1="450" y1="300" x2="392" y2="368"/><line x1="450" y1="300" x2="508" y2="368"/>
<line x1="395" y1="230" x2="392" y2="368"/><line x1="505" y1="230" x2="508" y2="368"/>
<line x1="392" y1="368" x2="450" y2="428"/><line x1="508" y1="368" x2="450" y2="428"/>
</g>
<circle cx="395" cy="230" r="11" fill="#0b1120" stroke="#60a5fa" stroke-width="2.5"/>
<circle cx="505" cy="230" r="11" fill="#0b1120" stroke="#60a5fa" stroke-width="2.5"/>
<circle cx="450" cy="300" r="14" fill="url(#brand)"/>
<circle cx="392" cy="368" r="11" fill="#0b1120" stroke="#a78bfa" stroke-width="2.5"/>
<circle cx="508" cy="368" r="11" fill="#0b1120" stroke="#a78bfa" stroke-width="2.5"/>
<circle cx="450" cy="428" r="9" fill="#0b1120" stroke="#22d3ee" stroke-width="2.5"/>
<!-- check badge -->
<circle cx="586" cy="152" r="26" fill="#34d399" stroke="#0b1120" stroke-width="4"/>
<path d="M574 152 l8 9 l17 -19" fill="none" stroke="#0b1120" stroke-width="4" stroke-linecap="round" stroke-linejoin="round"/>
<!-- governance chips -->
<rect x="760" y="136" width="330" height="92" rx="16" fill="#111a30" stroke="#2b3a5c"/>
<circle cx="806" cy="182" r="24" fill="#16223f" stroke="#2b3a5c"/>
<line x1="806" y1="166" x2="806" y2="192" stroke="#fbbf24" stroke-width="2.5"/>
<line x1="792" y1="172" x2="820" y2="172" stroke="#fbbf24" stroke-width="2.5"/>
<path d="M792 172 l-6 12 a7 5 0 0 0 12 0 z" fill="#fbbf24"/>
<path d="M820 172 l-6 12 a7 5 0 0 0 12 0 z" fill="#fbbf24"/>
<line x1="798" y1="196" x2="814" y2="196" stroke="#fbbf24" stroke-width="2.5" stroke-linecap="round"/>
<text x="848" y="176" font-size="16" font-weight="600" fill="#e2e8f0">Fairness &amp; bias control</text>
<text x="848" y="200" font-size="13" fill="#94a3b8">Testing across user cohorts</text>
<rect x="760" y="252" width="330" height="92" rx="16" fill="#111a30" stroke="#2b3a5c"/>
<circle cx="806" cy="298" r="24" fill="#16223f" stroke="#2b3a5c"/>
<rect x="794" y="282" width="24" height="32" rx="4" fill="none" stroke="#60a5fa" stroke-width="2.5"/>
<line x1="800" y1="292" x2="812" y2="292" stroke="#60a5fa" stroke-width="2" stroke-linecap="round"/>
<line x1="800" y1="300" x2="812" y2="300" stroke="#60a5fa" stroke-width="2" stroke-linecap="round"/>
<path d="M800 308 l4 4 l8 -8" fill="none" stroke="#34d399" stroke-width="2.5" stroke-linecap="round" stroke-linejoin="round"/>
<text x="848" y="292" font-size="16" font-weight="600" fill="#e2e8f0">Governance &amp; audit</text>
<text x="848" y="316" font-size="13" fill="#94a3b8">Model registry &#183; approvals</text>
<rect x="760" y="368" width="330" height="92" rx="16" fill="#111a30" stroke="#2b3a5c"/>
<circle cx="806" cy="414" r="24" fill="#16223f" stroke="#2b3a5c"/>
<path d="M788 414 c6 -11 14 -16 18 -16 s12 5 18 16 c-6 11 -14 16 -18 16 s-12 -5 -18 -16 z" fill="none" stroke="#a78bfa" stroke-width="2.5"/>
<circle cx="806" cy="414" r="6" fill="#a78bfa"/>
<text x="848" y="408" font-size="16" font-weight="600" fill="#e2e8f0">Transparency</text>
<text x="848" y="432" font-size="13" fill="#94a3b8">Explainable decisions</text>
<text x="600" y="556" text-anchor="middle" font-size="13" letter-spacing="4" fill="#64748b">TRUSTWORTHY AI ACROSS THE FULL LIFECYCLE</text>
</g>
</svg>
