<svg xmlns="http://www.w3.org/2000/svg" viewBox="0 0 1200 600" role="img" aria-labelledby="t">
<title id="t">Choosing the right analytics platform — evaluating options against your needs</title>
<defs>
<linearGradient id="bg" x1="0" y1="0" x2="1" y2="1"><stop offset="0" stop-color="#0b1120"/><stop offset="1" stop-color="#1b2540"/></linearGradient>
<linearGradient id="brand" x1="0" y1="0" x2="1" y2="0"><stop offset="0" stop-color="#2563eb"/><stop offset="1" stop-color="#7c3aed"/></linearGradient>
<radialGradient id="gb"><stop offset="0" stop-color="#2563eb" stop-opacity="0.25"/><stop offset="1" stop-color="#2563eb" stop-opacity="0"/></radialGradient>
<radialGradient id="gp"><stop offset="0" stop-color="#7c3aed" stop-opacity="0.22"/><stop offset="1" stop-color="#7c3aed" stop-opacity="0"/></radialGradient>
<pattern id="grid" width="44" height="44" patternUnits="userSpaceOnUse"><path d="M44 0H0V44" fill="none" stroke="#94a3b8" stroke-opacity="0.06"/></pattern>
</defs>
<rect width="1200" height="600" fill="url(#bg)"/>
<rect width="1200" height="600" fill="url(#grid)"/>
<ellipse cx="600" cy="300" rx="520" ry="320" fill="url(#gb)"/>
<ellipse cx="1000" cy="140" rx="360" ry="240" fill="url(#gp)"/>
<g font-family="Segoe UI, system-ui, sans-serif">
<!-- left card -->
<rect x="130" y="180" width="270" height="290" rx="18" fill="#111a30" stroke="#2b3a5c"/>
<rect x="162" y="212" width="48" height="48" rx="12" fill="#16223f" stroke="#2b3a5c"/>
<rect x="174" y="234" width="7" height="16" rx="2" fill="#64748b"/><rect x="185" y="226" width="7" height="24" rx="2" fill="#64748b"/><rect x="196" y="240" width="7" height="10" rx="2" fill="#64748b"/>
<rect x="162" y="284" width="130" height="11" rx="5.5" fill="#33415e"/>
<g stroke="#2b3a5c" stroke-width="2"><circle cx="172" cy="330" r="8" fill="#16223f"/><circle cx="172" cy="366" r="8" fill="#16223f"/><circle cx="172" cy="402" r="8" fill="#16223f"/></g>
<rect x="192" y="325" width="140" height="9" rx="4.5" fill="#1e2a47"/>
<rect x="192" y="361" width="110" height="9" rx="4.5" fill="#1e2a47"/>
<rect x="192" y="397" width="126" height="9" rx="4.5" fill="#1e2a47"/>
<line x1="164" y1="424" x2="180" y2="440" stroke="#64748b" stroke-width="2.5" stroke-linecap="round"/>
<line x1="180" y1="424" x2="164" y2="440" stroke="#64748b" stroke-width="2.5" stroke-linecap="round"/>
<text x="196" y="437" font-size="12" letter-spacing="2" fill="#64748b">PARTIAL FIT</text>
<!-- middle card (recommended) -->
<rect x="450" y="146" width="300" height="360" rx="20" fill="#131d38" stroke="url(#brand)" stroke-width="2.5"/>
<rect x="436" y="132" width="328" height="388" rx="26" fill="none" stroke="#7c3aed" stroke-opacity="0.3" stroke-dasharray="6 8"/>
<rect x="519" y="128" width="162" height="34" rx="17" fill="url(#brand)"/>
<text x="600" y="150" text-anchor="middle" font-size="13" font-weight="700" letter-spacing="2" fill="#fff">BEST FIT</text>
<rect x="486" y="192" width="52" height="52" rx="13" fill="#16223f" stroke="#3b82f6"/>
<rect x="499" y="216" width="7" height="18" rx="2" fill="#60a5fa"/><rect x="510" y="206" width="7" height="28" rx="2" fill="#3b82f6"/><rect x="521" y="222" width="7" height="12" rx="2" fill="#7c3aed"/>
<rect x="486" y="268" width="150" height="12" rx="6" fill="#3b4d75"/>
<g fill="none" stroke="#34d399" stroke-width="2.5" stroke-linecap="round" stroke-linejoin="round">
<path d="M492 318 l6 7 l12 -14"/><path d="M492 358 l6 7 l12 -14"/><path d="M492 398 l6 7 l12 -14"/>
</g>
<rect x="522" y="315" width="160" height="9" rx="4.5" fill="#2b3a5c"/>
<rect x="522" y="355" width="130" height="9" rx="4.5" fill="#2b3a5c"/>
<rect x="522" y="395" width="146" height="9" rx="4.5" fill="#2b3a5c"/>
<circle cx="600" cy="454" r="22" fill="#34d399"/>
<path d="M590 454 l7 8 l14 -16" fill="none" stroke="#0b1120" stroke-width="3.5" stroke-linecap="round" stroke-linejoin="round"/>
<!-- right card -->
<rect x="800" y="180" width="270" height="290" rx="18" fill="#111a30" stroke="#2b3a5c"/>
<rect x="832" y="212" width="48" height="48" rx="12" fill="#16223f" stroke="#2b3a5c"/>
<circle cx="856" cy="236" r="14" fill="none" stroke="#64748b" stroke-width="6" stroke-dasharray="14 8"/>
<rect x="832" y="284" width="130" height="11" rx="5.5" fill="#33415e"/>
<g stroke="#2b3a5c" stroke-width="2"><circle cx="842" cy="330" r="8" fill="#16223f"/><circle cx="842" cy="366" r="8" fill="#16223f"/><circle cx="842" cy="402" r="8" fill="#16223f"/></g>
<rect x="862" y="325" width="140" height="9" rx="4.5" fill="#1e2a47"/>
<rect x="862" y="361" width="118" height="9" rx="4.5" fill="#1e2a47"/>
<rect x="862" y="397" width="132" height="9" rx="4.5" fill="#1e2a47"/>
<line x1="834" y1="424" x2="850" y2="440" stroke="#64748b" stroke-width="2.5" stroke-linecap="round"/>
<line x1="850" y1="424" x2="834" y2="440" stroke="#64748b" stroke-width="2.5" stroke-linecap="round"/>
<text x="866" y="437" font-size="12" letter-spacing="2" fill="#64748b">OVERBUILT</text>
<text x="600" y="560" text-anchor="middle" font-size="13" letter-spacing="4" fill="#64748b">MATCH THE PLATFORM TO YOUR NEEDS &#8212; NOT THE HYPE</text>
</g>
</svg>
