<svg xmlns="http://www.w3.org/2000/svg" viewBox="0 0 1200 600" role="img" aria-labelledby="t">
<title id="t">The real cost of bad data — errors eroding revenue and trust</title>
<defs>
<linearGradient id="bg" x1="0" y1="0" x2="1" y2="1"><stop offset="0" stop-color="#0b1120"/><stop offset="1" stop-color="#1b2540"/></linearGradient>
<linearGradient id="brand" x1="0" y1="0" x2="1" y2="0"><stop offset="0" stop-color="#2563eb"/><stop offset="1" stop-color="#7c3aed"/></linearGradient>
<radialGradient id="gb"><stop offset="0" stop-color="#2563eb" stop-opacity="0.22"/><stop offset="1" stop-color="#2563eb" stop-opacity="0"/></radialGradient>
<radialGradient id="gr"><stop offset="0" stop-color="#f43f5e" stop-opacity="0.14"/><stop offset="1" stop-color="#f43f5e" stop-opacity="0"/></radialGradient>
<pattern id="grid" width="44" height="44" patternUnits="userSpaceOnUse"><path d="M44 0H0V44" fill="none" stroke="#94a3b8" stroke-opacity="0.06"/></pattern>
</defs>
<rect width="1200" height="600" fill="url(#bg)"/>
<rect width="1200" height="600" fill="url(#grid)"/>
<ellipse cx="320" cy="240" rx="440" ry="300" fill="url(#gb)"/>
<ellipse cx="920" cy="360" rx="420" ry="300" fill="url(#gr)"/>
<g font-family="Segoe UI, system-ui, sans-serif">
<!-- chart card -->
<rect x="120" y="120" width="580" height="360" rx="18" fill="#111a30" stroke="#2b3a5c"/>
<circle cx="152" cy="150" r="6" fill="#fb7185"/><circle cx="174" cy="150" r="6" fill="#fbbf24"/><circle cx="196" cy="150" r="6" fill="#34d399"/>
<text x="668" y="156" text-anchor="end" font-size="13" letter-spacing="3" fill="#64748b">REVENUE IMPACT</text>
<line x1="120" y1="174" x2="700" y2="174" stroke="#2b3a5c"/>
<line x1="156" y1="260" x2="664" y2="260" stroke="#1e2a47"/>
<line x1="156" y1="330" x2="664" y2="330" stroke="#1e2a47"/>
<line x1="156" y1="440" x2="664" y2="440" stroke="#2b3a5c"/>
<line x1="156" y1="216" x2="664" y2="216" stroke="#34d399" stroke-opacity="0.55" stroke-dasharray="7 7"/>
<text x="664" y="208" text-anchor="end" font-size="11" letter-spacing="2" fill="#34d399">TARGET</text>
<path d="M156 250 L240 232 L324 244" fill="none" stroke="#60a5fa" stroke-width="3" stroke-linecap="round" stroke-linejoin="round"/>
<path d="M324 244 L408 296 L492 330 L576 316 L652 396" fill="none" stroke="#fb7185" stroke-width="3" stroke-linecap="round" stroke-linejoin="round"/>
<g>
<circle cx="408" cy="296" r="12" fill="#2a1220" stroke="#fb7185" stroke-width="2"/>
<path d="M403 291 l10 10 M413 291 l-10 10" stroke="#fb7185" stroke-width="2.5" stroke-linecap="round"/>
<circle cx="492" cy="330" r="12" fill="#2a1220" stroke="#fb7185" stroke-width="2"/>
<path d="M487 325 l10 10 M497 325 l-10 10" stroke="#fb7185" stroke-width="2.5" stroke-linecap="round"/>
<circle cx="652" cy="396" r="12" fill="#2a1220" stroke="#fb7185" stroke-width="2"/>
<path d="M647 391 l10 10 M657 391 l-10 10" stroke="#fb7185" stroke-width="2.5" stroke-linecap="round"/>
</g>
<text x="418" y="270" font-size="11" letter-spacing="1" fill="#fb7185">DUPLICATES</text>
<text x="502" y="362" font-size="11" letter-spacing="1" fill="#fb7185">MISSING ROWS</text>
<!-- cost chips -->
<rect x="760" y="132" width="330" height="92" rx="16" fill="#111a30" stroke="#2b3a5c"/>
<circle cx="806" cy="178" r="24" fill="#16223f" stroke="#2b3a5c"/>
<text x="806" y="186" text-anchor="middle" font-size="22" font-weight="800" fill="#fbbf24">$</text>
<text x="848" y="172" font-size="16" font-weight="600" fill="#e2e8f0">Revenue leakage</text>
<text x="848" y="196" font-size="13" fill="#94a3b8">Billing &amp; invoicing errors</text>
<text x="1064" y="184" text-anchor="end" font-size="18" font-weight="700" fill="#fb7185">&#8722;12%</text>
<rect x="760" y="252" width="330" height="92" rx="16" fill="#111a30" stroke="#2b3a5c"/>
<circle cx="806" cy="298" r="24" fill="#16223f" stroke="#2b3a5c"/>
<path d="M806 282 l15 26 h-30 z" fill="#f59e0b"/><rect x="803.5" y="292" width="5" height="9" rx="2.5" fill="#1a1405"/><circle cx="806" cy="305" r="2.6" fill="#1a1405"/>
<text x="848" y="292" font-size="16" font-weight="600" fill="#e2e8f0">Bad decisions</text>
<text x="848" y="316" font-size="13" fill="#94a3b8">Reports nobody trusts</text>
<rect x="760" y="372" width="330" height="92" rx="16" fill="#111a30" stroke="#2b3a5c"/>
<circle cx="806" cy="418" r="24" fill="#16223f" stroke="#2b3a5c"/>
<rect x="794" y="408" width="16" height="20" rx="3" fill="none" stroke="#94a3b8" stroke-width="2"/>
<rect x="800" y="402" width="16" height="20" rx="3" fill="#16223f" stroke="#94a3b8" stroke-width="2"/>
<text x="848" y="412" font-size="16" font-weight="600" fill="#e2e8f0">Rework &amp; cleanup</text>
<text x="848" y="436" font-size="13" fill="#94a3b8">Analyst hours lost</text>
<text x="1064" y="424" text-anchor="end" font-size="18" font-weight="700" fill="#fbbf24">40%</text>
<text x="600" y="548" text-anchor="middle" font-size="13" letter-spacing="4" fill="#64748b">BAD DATA COSTS THE US ECONOMY $3.1 TRILLION A YEAR</text>
</g>
</svg>
