<svg xmlns="http://www.w3.org/2000/svg" viewBox="0 0 1200 600" role="img" aria-labelledby="t">
<title id="t">Cross-cloud data reconciliation across AWS, Azure, GCP, and on-prem</title>
<defs>
<linearGradient id="bg" x1="0" y1="0" x2="1" y2="1"><stop offset="0" stop-color="#0b1120"/><stop offset="1" stop-color="#1b2540"/></linearGradient>
<linearGradient id="brand" x1="0" y1="0" x2="1" y2="0"><stop offset="0" stop-color="#2563eb"/><stop offset="1" stop-color="#7c3aed"/></linearGradient>
<radialGradient id="gb"><stop offset="0" stop-color="#2563eb" stop-opacity="0.2"/><stop offset="1" stop-color="#2563eb" stop-opacity="0"/></radialGradient>
<radialGradient id="gp"><stop offset="0" stop-color="#7c3aed" stop-opacity="0.18"/><stop offset="1" stop-color="#7c3aed" stop-opacity="0"/></radialGradient>
<radialGradient id="gg"><stop offset="0" stop-color="#10b981" stop-opacity="0.15"/><stop offset="1" stop-color="#10b981" stop-opacity="0"/></radialGradient>
<pattern id="grid" width="44" height="44" patternUnits="userSpaceOnUse"><path d="M44 0H0V44" fill="none" stroke="#94a3b8" stroke-opacity="0.05"/></pattern>
<marker id="arrB" viewBox="0 0 10 10" refX="8" refY="5" markerWidth="8" markerHeight="8" orient="auto"><path d="M0 0L10 5L0 10z" fill="#7c3aed"/></marker>
<marker id="arrG" viewBox="0 0 10 10" refX="8" refY="5" markerWidth="8" markerHeight="8" orient="auto"><path d="M0 0L10 5L0 10z" fill="#10b981"/></marker>
</defs>
<rect width="1200" height="600" fill="url(#bg)"/>
<rect width="1200" height="600" fill="url(#grid)"/>
<ellipse cx="200" cy="200" rx="300" ry="260" fill="url(#gb)"/>
<ellipse cx="1000" cy="200" rx="300" ry="260" fill="url(#gp)"/>
<ellipse cx="600" cy="500" rx="400" ry="180" fill="url(#gg)"/>
<g font-family="Segoe UI, system-ui, sans-serif">
<!-- AWS -->
<rect x="60" y="70" width="230" height="170" rx="16" fill="#111a30" stroke="#ff9900" stroke-opacity="0.5"/>
<text x="86" y="104" font-size="12" letter-spacing="3" fill="#ff9900">AWS</text>
<g>
<circle cx="92" cy="132" r="4" fill="#ff9900"/><rect x="106" y="127" width="98" height="9" rx="4.5" fill="#2b3a5c"/>
<circle cx="92" cy="162" r="4" fill="#ff9900"/><rect x="106" y="157" width="84" height="9" rx="4.5" fill="#2b3a5c"/>
<circle cx="92" cy="192" r="4" fill="#ff9900"/><rect x="106" y="187" width="106" height="9" rx="4.5" fill="#2b3a5c"/>
<rect x="92" y="210" width="170" height="1" fill="#2b3a5c"/>
<text x="92" y="232" font-size="10" fill="#3b4d75">3 tables &#183; 1.2M rows</text>
</g>
<!-- Azure -->
<rect x="60" y="280" width="230" height="170" rx="16" fill="#111a30" stroke="#0078d4" stroke-opacity="0.5"/>
<text x="86" y="314" font-size="12" letter-spacing="3" fill="#0078d4">AZURE</text>
<g>
<circle cx="92" cy="342" r="4" fill="#0078d4"/><rect x="106" y="337" width="98" height="9" rx="4.5" fill="#2b3a5c"/>
<circle cx="92" cy="372" r="4" fill="#fbbf24"/><rect x="106" y="367" width="84" height="9" rx="4.5" fill="#4a3a1e"/>
<circle cx="92" cy="402" r="4" fill="#0078d4"/><rect x="106" y="397" width="106" height="9" rx="4.5" fill="#2b3a5c"/>
<rect x="92" y="420" width="170" height="1" fill="#2b3a5c"/>
<text x="92" y="442" font-size="10" fill="#3b4d75">3 tables &#183; 0.9M rows</text>
</g>
<!-- GCP -->
<rect x="370" y="70" width="230" height="170" rx="16" fill="#111a30" stroke="#4285f4" stroke-opacity="0.5"/>
<text x="396" y="104" font-size="12" letter-spacing="3" fill="#4285f4">GCP</text>
<g>
<circle cx="402" cy="132" r="4" fill="#4285f4"/><rect x="416" y="127" width="98" height="9" rx="4.5" fill="#2b3a5c"/>
<circle cx="402" cy="162" r="4" fill="#4285f4"/><rect x="416" y="157" width="84" height="9" rx="4.5" fill="#2b3a5c"/>
<circle cx="402" cy="192" r="4" fill="#34a853"/><rect x="416" y="187" width="106" height="9" rx="4.5" fill="#0b2d1c"/>
<rect x="402" y="210" width="170" height="1" fill="#2b3a5c"/>
<text x="402" y="232" font-size="10" fill="#3b4d75">3 tables &#183; 1.1M rows</text>
</g>
<!-- On-Prem -->
<rect x="370" y="280" width="230" height="170" rx="16" fill="#111a30" stroke="#64748b" stroke-opacity="0.5"/>
<text x="396" y="314" font-size="12" letter-spacing="3" fill="#94a3b8">ON-PREM</text>
<g>
<circle cx="402" cy="342" r="4" fill="#94a3b8"/><rect x="416" y="337" width="98" height="9" rx="4.5" fill="#2b3a5c"/>
<circle cx="402" cy="372" r="4" fill="#94a3b8"/><rect x="416" y="367" width="84" height="9" rx="4.5" fill="#2b3a5c"/>
<circle cx="402" cy="402" r="4" fill="#fbbf24"/><rect x="416" y="397" width="106" height="9" rx="4.5" fill="#4a3a1e"/>
<rect x="402" y="420" width="170" height="1" fill="#2b3a5c"/>
<text x="402" y="442" font-size="10" fill="#3b4d75">3 tables &#183; 2.4M rows</text>
</g>
<!-- arrows from sources to engine -->
<path d="M290 155 C340 155 360 200 398 280" fill="none" stroke="#64748b" stroke-width="2" stroke-dasharray="6 4" marker-end="url(#arrG)"/>
<path d="M290 365 C340 365 360 340 398 320" fill="none" stroke="#64748b" stroke-width="2" stroke-dasharray="6 4" marker-end="url(#arrG)"/>
<path d="M600 155 L650 155" fill="none" stroke="#64748b" stroke-width="2" stroke-dasharray="6 4"/>
<path d="M600 365 L650 365" fill="none" stroke="#64748b" stroke-width="2" stroke-dasharray="6 4"/>
<!-- reconciliation engine -->
<circle cx="740" cy="300" r="70" fill="#111a30" stroke="url(#brand)" stroke-width="3.5"/>
<circle cx="740" cy="300" r="30" fill="none" stroke="#10b981" stroke-width="6" stroke-dasharray="10 8"/>
<circle cx="740" cy="300" r="10" fill="url(#brand)"/>
<text x="740" y="400" text-anchor="middle" font-size="11" letter-spacing="3" fill="#94a3b8">RECONCILIATION ENGINE</text>
<text x="740" y="416" text-anchor="middle" font-size="10" fill="#64748b">Schema Drift &#183; Row-Level Match &#183; Trust Score</text>
<!-- arrow out -->
<line x1="814" y1="300" x2="890" y2="300" stroke="#10b981" stroke-width="3.5" marker-end="url(#arrG)"/>
<!-- trusted output -->
<rect x="910" y="140" width="250" height="320" rx="18" fill="#111a30" stroke="#10b981" stroke-opacity="0.4"/>
<text x="936" y="178" font-size="12" letter-spacing="3" fill="#10b981">TRUSTED OUTPUT</text>
<line x1="910" y1="196" x2="1160" y2="196" stroke="#10b981" stroke-opacity="0.2"/>
<g>
<rect x="936" y="214" width="160" height="10" rx="5" fill="#2b3a5c"/>
<circle cx="1180" cy="219" r="10" fill="#34d399"/><path d="M1176 219 l3 4 l7 -8" fill="none" stroke="#0b1120" stroke-width="2" stroke-linecap="round" stroke-linejoin="round"/>
<rect x="936" y="252" width="130" height="10" rx="5" fill="#2b3a5c"/>
<circle cx="1180" cy="257" r="10" fill="#34d399"/><path d="M1176 257 l3 4 l7 -8" fill="none" stroke="#0b1120" stroke-width="2" stroke-linecap="round" stroke-linejoin="round"/>
<rect x="928" y="282" width="224" height="34" rx="8" fill="#f59e0b" fill-opacity="0.09"/>
<rect x="936" y="294" width="146" height="10" rx="5" fill="#4a3a1e"/>
<path d="M1180 288 l10 17 h-20 z" fill="#f59e0b"/><rect x="1178" y="295" width="4" height="7" rx="2" fill="#1a1405"/><circle cx="1180" cy="305" r="2" fill="#1a1405"/>
<rect x="936" y="332" width="152" height="10" rx="5" fill="#2b3a5c"/>
<circle cx="1180" cy="337" r="10" fill="#34d399"/><path d="M1176 337 l3 4 l7 -8" fill="none" stroke="#0b1120" stroke-width="2" stroke-linecap="round" stroke-linejoin="round"/>
<rect x="936" y="370" width="120" height="10" rx="5" fill="#2b3a5c"/>
<circle cx="1180" cy="375" r="10" fill="#34d399"/><path d="M1176 375 l3 4 l7 -8" fill="none" stroke="#0b1120" stroke-width="2" stroke-linecap="round" stroke-linejoin="round"/>
</g>
<rect x="936" y="404" width="130" height="32" rx="16" fill="#0d2b22" stroke="#34d399"/>
<text x="1001" y="425" text-anchor="middle" font-size="12" font-weight="700" fill="#34d399">97.2% MATCHED</text>
<text x="600" y="560" text-anchor="middle" font-size="12" letter-spacing="4" fill="#64748b">CROSS-CLOUD RECONCILIATION &#183; AWS + AZURE + GCP + ON-PREM</text>
</g>
</svg>