<svg xmlns="http://www.w3.org/2000/svg" viewBox="0 0 1200 600" role="img" aria-labelledby="t">
<title id="t">Artificial intelligence transforming business intelligence dashboards</title>
<defs>
<linearGradient id="bg" x1="0" y1="0" x2="1" y2="1"><stop offset="0" stop-color="#0b1120"/><stop offset="1" stop-color="#1b2540"/></linearGradient>
<linearGradient id="brand" x1="0" y1="0" x2="1" y2="0"><stop offset="0" stop-color="#2563eb"/><stop offset="1" stop-color="#7c3aed"/></linearGradient>
<radialGradient id="gb"><stop offset="0" stop-color="#2563eb" stop-opacity="0.25"/><stop offset="1" stop-color="#2563eb" stop-opacity="0"/></radialGradient>
<radialGradient id="gp"><stop offset="0" stop-color="#7c3aed" stop-opacity="0.22"/><stop offset="1" stop-color="#7c3aed" stop-opacity="0"/></radialGradient>
<pattern id="grid" width="44" height="44" patternUnits="userSpaceOnUse"><path d="M44 0H0V44" fill="none" stroke="#94a3b8" stroke-opacity="0.06"/></pattern>
</defs>
<rect width="1200" height="600" fill="url(#bg)"/>
<rect width="1200" height="600" fill="url(#grid)"/>
<ellipse cx="280" cy="300" rx="420" ry="300" fill="url(#gp)"/>
<ellipse cx="900" cy="300" rx="440" ry="300" fill="url(#gb)"/>
<!-- neural network -->
<g stroke="#33415e" stroke-width="1.5" opacity="0.9">
<line x1="150" y1="180" x2="330" y2="140"/><line x1="150" y1="180" x2="330" y2="240"/><line x1="150" y1="180" x2="330" y2="360"/>
<line x1="150" y1="300" x2="330" y2="240"/><line x1="150" y1="300" x2="330" y2="360"/><line x1="150" y1="300" x2="330" y2="460"/>
<line x1="150" y1="420" x2="330" y2="360"/><line x1="150" y1="420" x2="330" y2="460"/><line x1="150" y1="420" x2="330" y2="140"/>
<line x1="330" y1="140" x2="490" y2="220"/><line x1="330" y1="240" x2="490" y2="220"/><line x1="330" y1="240" x2="490" y2="380"/>
<line x1="330" y1="360" x2="490" y2="220"/><line x1="330" y1="360" x2="490" y2="380"/><line x1="330" y1="460" x2="490" y2="380"/>
</g>
<g fill="#0b1120" stroke="#60a5fa" stroke-width="2.5">
<circle cx="150" cy="180" r="14"/><circle cx="150" cy="300" r="14"/><circle cx="150" cy="420" r="14"/>
<circle cx="330" cy="140" r="14"/><circle cx="330" cy="240" r="14"/><circle cx="330" cy="360" r="14"/><circle cx="330" cy="460" r="14"/>
</g>
<circle cx="490" cy="220" r="16" fill="url(#brand)"/>
<circle cx="490" cy="380" r="16" fill="url(#brand)"/>
<!-- links into dashboard -->
<path d="M506 220 C560 220 580 260 638 264" fill="none" stroke="url(#brand)" stroke-width="2.5" stroke-dasharray="7 7"/>
<path d="M506 380 C560 380 580 344 638 340" fill="none" stroke="url(#brand)" stroke-width="2.5" stroke-dasharray="7 7"/>
<g font-family="Segoe UI, system-ui, sans-serif">
<rect x="536" y="272" width="58" height="34" rx="17" fill="url(#brand)"/>
<text x="565" y="295" text-anchor="middle" font-size="17" font-weight="800" fill="#fff">AI</text>
<path d="M565 246 l4 10 10 4 -10 4 -4 10 -4 -10 -10 -4 10 -4 z" fill="#fbbf24"/>
<!-- dashboard card -->
<rect x="640" y="140" width="450" height="320" rx="18" fill="#111a30" stroke="#2b3a5c"/>
<circle cx="672" cy="170" r="6" fill="#fb7185"/><circle cx="694" cy="170" r="6" fill="#fbbf24"/><circle cx="716" cy="170" r="6" fill="#34d399"/>
<text x="1058" y="176" text-anchor="end" font-size="13" letter-spacing="3" fill="#64748b">LIVE INSIGHTS</text>
<line x1="640" y1="194" x2="1090" y2="194" stroke="#2b3a5c"/>
<rect x="672" y="216" width="180" height="52" rx="10" fill="#16223f" stroke="#2b3a5c"/>
<text x="688" y="238" font-size="16" font-weight="700" fill="#e2e8f0">$4.2M</text>
<text x="688" y="258" font-size="11" letter-spacing="2" fill="#94a3b8">FORECAST</text>
<rect x="868" y="216" width="190" height="52" rx="10" fill="#16223f" stroke="#2b3a5c"/>
<text x="884" y="238" font-size="16" font-weight="700" fill="#34d399">97% conf.</text>
<text x="884" y="258" font-size="11" letter-spacing="2" fill="#94a3b8">AI PREDICTION</text>
<line x1="672" y1="426" x2="1058" y2="426" stroke="#2b3a5c"/>
<rect x="686" y="360" width="36" height="66" rx="5" fill="#2563eb"/>
<rect x="742" y="330" width="36" height="96" rx="5" fill="#3b82f6"/>
<rect x="798" y="372" width="36" height="54" rx="5" fill="#2563eb"/>
<rect x="854" y="312" width="36" height="114" rx="5" fill="#3b82f6"/>
<rect x="910" y="344" width="36" height="82" rx="5" fill="#2563eb"/>
<rect x="966" y="288" width="36" height="138" rx="5" fill="#7c3aed"/>
<rect x="948" y="248" width="74" height="28" rx="14" fill="#16223f" stroke="#7c3aed"/>
<text x="985" y="267" text-anchor="middle" font-size="14" font-weight="700" fill="#a78bfa">+41%</text>
</g>
</svg>
