<svg xmlns="http://www.w3.org/2000/svg" viewBox="0 0 1200 600" role="img" aria-labelledby="t">
<title id="t">From data to confident decisions — analytics feeding measurable business outcomes</title>
<defs>
<linearGradient id="bg" x1="0" y1="0" x2="1" y2="1"><stop offset="0" stop-color="#0b1120"/><stop offset="1" stop-color="#1b2540"/></linearGradient>
<linearGradient id="brand" x1="0" y1="0" x2="1" y2="0"><stop offset="0" stop-color="#2563eb"/><stop offset="1" stop-color="#7c3aed"/></linearGradient>
<linearGradient id="area" x1="0" y1="0" x2="0" y2="1"><stop offset="0" stop-color="#2563eb" stop-opacity="0.35"/><stop offset="1" stop-color="#2563eb" stop-opacity="0"/></linearGradient>
<radialGradient id="gb"><stop offset="0" stop-color="#2563eb" stop-opacity="0.25"/><stop offset="1" stop-color="#2563eb" stop-opacity="0"/></radialGradient>
<radialGradient id="gp"><stop offset="0" stop-color="#7c3aed" stop-opacity="0.22"/><stop offset="1" stop-color="#7c3aed" stop-opacity="0"/></radialGradient>
<pattern id="grid" width="44" height="44" patternUnits="userSpaceOnUse"><path d="M44 0H0V44" fill="none" stroke="#94a3b8" stroke-opacity="0.06"/></pattern>
<marker id="arr" viewBox="0 0 10 10" refX="8" refY="5" markerWidth="7" markerHeight="7" orient="auto"><path d="M0 0L10 5L0 10z" fill="#64748b"/></marker>
<marker id="arrB" viewBox="0 0 10 10" refX="8" refY="5" markerWidth="7" markerHeight="7" orient="auto"><path d="M0 0L10 5L0 10z" fill="#7c3aed"/></marker>
</defs>
<rect width="1200" height="600" fill="url(#bg)"/>
<rect width="1200" height="600" fill="url(#grid)"/>
<ellipse cx="260" cy="140" rx="440" ry="280" fill="url(#gb)"/>
<ellipse cx="980" cy="480" rx="440" ry="280" fill="url(#gp)"/>
<!-- dashboard card -->
<g font-family="Segoe UI, system-ui, sans-serif">
<rect x="110" y="130" width="470" height="340" rx="18" fill="#111a30" stroke="#2b3a5c"/>
<circle cx="142" cy="160" r="6" fill="#fb7185"/><circle cx="164" cy="160" r="6" fill="#fbbf24"/><circle cx="186" cy="160" r="6" fill="#34d399"/>
<text x="548" y="166" text-anchor="end" font-size="13" letter-spacing="3" fill="#64748b">ANALYTICS</text>
<line x1="110" y1="184" x2="580" y2="184" stroke="#2b3a5c"/>
<rect x="138" y="206" width="130" height="56" rx="10" fill="#16223f" stroke="#2b3a5c"/>
<text x="152" y="230" font-size="17" font-weight="700" fill="#34d399">+24%</text>
<text x="152" y="250" font-size="11" letter-spacing="2" fill="#94a3b8">REVENUE</text>
<rect x="282" y="206" width="130" height="56" rx="10" fill="#16223f" stroke="#2b3a5c"/>
<text x="296" y="230" font-size="17" font-weight="700" fill="#60a5fa">98.2%</text>
<text x="296" y="250" font-size="11" letter-spacing="2" fill="#94a3b8">ACCURACY</text>
<rect x="426" y="206" width="122" height="56" rx="10" fill="#16223f" stroke="#2b3a5c"/>
<text x="440" y="230" font-size="17" font-weight="700" fill="#a78bfa">3.2x</text>
<text x="440" y="250" font-size="11" letter-spacing="2" fill="#94a3b8">ROI</text>
<line x1="138" y1="330" x2="552" y2="330" stroke="#1e2a47"/>
<line x1="138" y1="380" x2="552" y2="380" stroke="#1e2a47"/>
<line x1="138" y1="430" x2="552" y2="430" stroke="#2b3a5c"/>
<path d="M138 430 L138 402 L210 386 L282 396 L354 348 L426 358 L498 306 L552 278 L552 430 Z" fill="url(#area)"/>
<path d="M138 402 L210 386 L282 396 L354 348 L426 358 L498 306 L552 278" fill="none" stroke="url(#brand)" stroke-width="3" stroke-linejoin="round" stroke-linecap="round"/>
<circle cx="552" cy="278" r="7" fill="#7c3aed" stroke="#0b1120" stroke-width="3"/>
</g>
<!-- branch arrows -->
<path d="M596 300 C660 300 676 172 744 170" fill="none" stroke="#3b4d75" stroke-width="2" stroke-dasharray="6 7" marker-end="url(#arr)"/>
<path d="M596 300 L744 300" fill="none" stroke="#7c3aed" stroke-width="3" marker-end="url(#arrB)"/>
<path d="M596 300 C660 300 676 428 744 430" fill="none" stroke="#3b4d75" stroke-width="2" stroke-dasharray="6 7" marker-end="url(#arr)"/>
<!-- outcome cards -->
<g font-family="Segoe UI, system-ui, sans-serif">
<rect x="760" y="118" width="330" height="104" rx="16" fill="#111a30" stroke="#2b3a5c"/>
<circle cx="806" cy="170" r="24" fill="#16223f" stroke="#2b3a5c"/>
<rect x="796" y="168" width="6" height="12" rx="2" fill="#60a5fa"/><rect x="805" y="160" width="6" height="20" rx="2" fill="#3b82f6"/><rect x="814" y="152" width="6" height="28" rx="2" fill="#7c3aed"/>
<text x="848" y="164" font-size="16" font-weight="600" fill="#e2e8f0">Faster growth</text>
<text x="848" y="188" font-size="13" fill="#94a3b8">Pipeline conversion</text>
<text x="1064" y="176" text-anchor="end" font-size="18" font-weight="700" fill="#34d399">+18%</text>
<rect x="760" y="248" width="330" height="104" rx="16" fill="#111a30" stroke="url(#brand)" stroke-width="2"/>
<circle cx="806" cy="300" r="24" fill="#16223f" stroke="#2b3a5c"/>
<path d="M795 300 l8 9 l15 -18" fill="none" stroke="#34d399" stroke-width="3.5" stroke-linecap="round" stroke-linejoin="round"/>
<text x="848" y="294" font-size="16" font-weight="600" fill="#e2e8f0">Confident decisions</text>
<text x="848" y="318" font-size="13" fill="#94a3b8">Backed by live data</text>
<text x="1064" y="306" text-anchor="end" font-size="18" font-weight="700" fill="#34d399">2.5x</text>
<rect x="760" y="378" width="330" height="104" rx="16" fill="#111a30" stroke="#2b3a5c"/>
<circle cx="806" cy="430" r="24" fill="#16223f" stroke="#2b3a5c"/>
<circle cx="806" cy="430" r="13" fill="none" stroke="#a78bfa" stroke-width="2.5"/>
<path d="M806 423 v7 l6 4" fill="none" stroke="#a78bfa" stroke-width="2.5" stroke-linecap="round"/>
<text x="848" y="424" font-size="16" font-weight="600" fill="#e2e8f0">Shorter cycles</text>
<text x="848" y="448" font-size="13" fill="#94a3b8">Decision lead time</text>
<text x="1064" y="436" text-anchor="end" font-size="18" font-weight="700" fill="#34d399">&#8722;40%</text>
</g>
</svg>
